<svg id="wave" style="transform:rotate(180deg); transition: 0.3s" viewBox="0 0 1440 470" version="1.1" xmlns="http://www.w3.org/2000/svg"><defs><linearGradient id="sw-gradient-0" x1="0" x2="0" y1="1" y2="0"><stop stop-color="rgba(82, 75, 215, 1)" offset="0%"></stop><stop stop-color="rgba(82, 75, 215, 1)" offset="100%"></stop></linearGradient></defs><path style="transform:translate(0, 0px); opacity:1" fill="url(#sw-gradient-0)" d="M0,376L60,352.5C120,329,240,282,360,274.2C480,266,600,298,720,313.3C840,329,960,329,1080,282C1200,235,1320,141,1440,101.8C1560,63,1680,78,1800,125.3C1920,172,2040,251,2160,266.3C2280,282,2400,235,2520,235C2640,235,2760,282,2880,274.2C3000,266,3120,204,3240,164.5C3360,125,3480,110,3600,156.7C3720,204,3840,313,3960,321.2C4080,329,4200,235,4320,195.8C4440,157,4560,172,4680,180.2C4800,188,4920,188,5040,219.3C5160,251,5280,313,5400,329C5520,345,5640,313,5760,274.2C5880,235,6000,188,6120,180.2C6240,172,6360,204,6480,242.8C6600,282,6720,329,6840,360.3C6960,392,7080,407,7200,368.2C7320,329,7440,235,7560,235C7680,235,7800,329,7920,329C8040,329,8160,235,8280,227.2C8400,219,8520,298,8580,336.8L8640,376L8640,470L8580,470C8520,470,8400,470,8280,470C8160,470,8040,470,7920,470C7800,470,7680,470,7560,470C7440,470,7320,470,7200,470C7080,470,6960,470,6840,470C6720,470,6600,470,6480,470C6360,470,6240,470,6120,470C6000,470,5880,470,5760,470C5640,470,5520,470,5400,470C5280,470,5160,470,5040,470C4920,470,4800,470,4680,470C4560,470,4440,470,4320,470C4200,470,4080,470,3960,470C3840,470,3720,470,3600,470C3480,470,3360,470,3240,470C3120,470,3000,470,2880,470C2760,470,2640,470,2520,470C2400,470,2280,470,2160,470C2040,470,1920,470,1800,470C1680,470,1560,470,1440,470C1320,470,1200,470,1080,470C960,470,840,470,720,470C600,470,480,470,360,470C240,470,120,470,60,470L0,470Z"></path></svg>